<?xml version="1.0" encoding="utf-8"?>
<!-- Generator: Adobe Illustrator 25.0.0, SVG Export Plug-In . SVG Version: 6.00 Build 0)  -->
<svg version="1.1" id="Layer_1" xmlns="http://www.w3.org/2000/svg" xmlns:xlink="http://www.w3.org/1999/xlink" x="0px" y="0px"
	 viewBox="0 0 150 50" style="enable-background:new 0 0 150 50;" xml:space="preserve">
<style type="text/css">
	.st0{fill:#43337F;}
	.st1{fill:url(#SVGID_1_);}
	.st2{fill:url(#SVGID_2_);}
	.st3{fill:url(#SVGID_3_);}
	.st4{fill:url(#SVGID_4_);}
	.st5{fill:url(#SVGID_5_);}
	.st6{fill:url(#SVGID_6_);}
	.st7{fill:url(#SVGID_7_);}
	.st8{fill:url(#SVGID_8_);}
	.st9{fill:url(#SVGID_9_);}
</style>
<g>
	<g>
		<path class="st0" d="M33.64,36.74v4.42h0c-4.77,0-9.3-2.13-12.34-5.81L2.92,13.11V8.84h0c4.77,0,9.28,2.13,12.32,5.8l9.43,11.41
			l0.06-0.1L33.64,36.74z"/>
		<linearGradient id="SVGID_1_" gradientUnits="userSpaceOnUse" x1="17.648" y1="26.4683" x2="37.4327" y2="21.9161">
			<stop  offset="0" style="stop-color:#47A5D7"/>
			<stop  offset="1" style="stop-color:#634C9F"/>
		</linearGradient>
		<polygon class="st1" points="33.64,8.84 33.64,36.74 24.73,25.95 		"/>
		<linearGradient id="SVGID_2_" gradientUnits="userSpaceOnUse" x1="18.6639" y1="22.9185" x2="0.28" y2="27.8428">
			<stop  offset="0" style="stop-color:#79A5D8"/>
			<stop  offset="1" style="stop-color:#634C9F"/>
		</linearGradient>
		<polygon class="st2" points="2.92,41.16 2.92,13.11 11.83,23.89 		"/>
	</g>
	<linearGradient id="SVGID_3_" gradientUnits="userSpaceOnUse" x1="40.9724" y1="23.5664" x2="55.8692" y2="23.5664">
		<stop  offset="0" style="stop-color:#47A5D7"/>
		<stop  offset="1" style="stop-color:#634C9F"/>
	</linearGradient>
	<path class="st3" d="M55.87,32.78h-4.74L40.97,14.35h4.74L55.87,32.78z M45.03,24.2v8.58h-4.05V16.96L45.03,24.2z M51.82,22.8
		v-8.45h4.05v15.9L51.82,22.8z"/>
	<linearGradient id="SVGID_4_" gradientUnits="userSpaceOnUse" x1="57.5559" y1="23.5664" x2="73.4526" y2="23.5664">
		<stop  offset="0" style="stop-color:#47A5D7"/>
		<stop  offset="1" style="stop-color:#634C9F"/>
	</linearGradient>
	<path class="st4" d="M64.69,22.28l-2.87,10.5h-4.26l5.11-17.71L64.69,22.28z M73.45,32.78h-4.61l-0.97-3.5H64l0.84-3.16h2.13
		l-3.29-11.77H68L73.45,32.78z"/>
	<linearGradient id="SVGID_5_" gradientUnits="userSpaceOnUse" x1="73.72" y1="23.7112" x2="85.669" y2="23.7112">
		<stop  offset="0" style="stop-color:#47A5D7"/>
		<stop  offset="1" style="stop-color:#634C9F"/>
	</linearGradient>
	<path class="st5" d="M78.83,33.07c-3.63-0.21-5.11-2.26-5.11-4.5V27.3h4.03v0.74c0,0.68,0.37,1.13,1.08,1.32V33.07z M80.14,29.36
		c0.76-0.21,1.03-0.79,1.03-1.63V14.35h4.5v13.48c0,3.08-1.82,5.03-5.53,5.24V29.36z"/>
	<linearGradient id="SVGID_6_" gradientUnits="userSpaceOnUse" x1="86.934" y1="23.5664" x2="102.8313" y2="23.5664">
		<stop  offset="0" style="stop-color:#47A5D7"/>
		<stop  offset="1" style="stop-color:#634C9F"/>
	</linearGradient>
	<path class="st6" d="M94.07,22.28l-2.87,10.5h-4.26l5.11-17.71L94.07,22.28z M102.83,32.78h-4.61l-0.97-3.5h-3.87l0.84-3.16h2.13
		l-3.29-11.77h4.32L102.83,32.78z"/>
	<linearGradient id="SVGID_7_" gradientUnits="userSpaceOnUse" x1="101.9119" y1="23.5664" x2="115.5454" y2="23.5664">
		<stop  offset="0" style="stop-color:#47A5D7"/>
		<stop  offset="1" style="stop-color:#634C9F"/>
	</linearGradient>
	<path class="st7" d="M101.91,17.96v-3.61h13.63v3.61H101.91z M110.99,19.12v13.66h-4.53V19.12H110.99z"/>
	<linearGradient id="SVGID_8_" gradientUnits="userSpaceOnUse" x1="117.2589" y1="23.7241" x2="131.6295" y2="23.7241">
		<stop  offset="0" style="stop-color:#47A5D7"/>
		<stop  offset="1" style="stop-color:#634C9F"/>
	</linearGradient>
	<path class="st8" d="M123.92,33.09c-4.5-0.18-6.66-2.47-6.66-6.18V14.35h4.53v12.24c0,1.82,0.89,2.58,2.13,2.76V33.09z
		 M125.23,29.33c1.24-0.21,2.16-0.97,2.16-2.74V14.35h4.24v12.63c0,3.71-2.37,5.79-6.4,6.08V29.33z"/>
	<linearGradient id="SVGID_9_" gradientUnits="userSpaceOnUse" x1="134.5007" y1="23.5664" x2="147.0816" y2="23.5664">
		<stop  offset="0" style="stop-color:#47A5D7"/>
		<stop  offset="1" style="stop-color:#634C9F"/>
	</linearGradient>
	<path class="st9" d="M139.03,32.78h-4.53V14.35h4.53V32.78z M140.34,29.17h6.74v3.61h-6.74V29.17z"/>
</g>
</svg>
